<svg xmlns="http://www.w3.org/2000/svg" width="1200" height="720" viewBox="0 0 1200 720">
<rect width="100%" height="100%" fill="#ffffff"/>
<g font-family="Segoe UI, Arial, sans-serif" fill="#172033">
<text x="600" y="42" text-anchor="middle" font-size="27" font-weight="700">Unequal adjacent-transposition detection rate by modulus</text>
<text x="600" y="73" text-anchor="middle" font-size="16" fill="#536174">Moduli 2–30 · string lengths 1–4 · event-weighted across lengths</text>
<line x1="105" y1="615.00" x2="1165" y2="615.00" stroke="#dce3ec" stroke-width="1"/>
<text x="91" y="620.00" text-anchor="end" font-size="14" fill="#536174">0%</text>
<line x1="105" y1="564.00" x2="1165" y2="564.00" stroke="#dce3ec" stroke-width="1"/>
<text x="91" y="569.00" text-anchor="end" font-size="14" fill="#536174">10%</text>
<line x1="105" y1="513.00" x2="1165" y2="513.00" stroke="#dce3ec" stroke-width="1"/>
<text x="91" y="518.00" text-anchor="end" font-size="14" fill="#536174">20%</text>
<line x1="105" y1="462.00" x2="1165" y2="462.00" stroke="#dce3ec" stroke-width="1"/>
<text x="91" y="467.00" text-anchor="end" font-size="14" fill="#536174">30%</text>
<line x1="105" y1="411.00" x2="1165" y2="411.00" stroke="#dce3ec" stroke-width="1"/>
<text x="91" y="416.00" text-anchor="end" font-size="14" fill="#536174">40%</text>
<line x1="105" y1="360.00" x2="1165" y2="360.00" stroke="#dce3ec" stroke-width="1"/>
<text x="91" y="365.00" text-anchor="end" font-size="14" fill="#536174">50%</text>
<line x1="105" y1="309.00" x2="1165" y2="309.00" stroke="#dce3ec" stroke-width="1"/>
<text x="91" y="314.00" text-anchor="end" font-size="14" fill="#536174">60%</text>
<line x1="105" y1="258.00" x2="1165" y2="258.00" stroke="#dce3ec" stroke-width="1"/>
<text x="91" y="263.00" text-anchor="end" font-size="14" fill="#536174">70%</text>
<line x1="105" y1="207.00" x2="1165" y2="207.00" stroke="#dce3ec" stroke-width="1"/>
<text x="91" y="212.00" text-anchor="end" font-size="14" fill="#536174">80%</text>
<line x1="105" y1="156.00" x2="1165" y2="156.00" stroke="#dce3ec" stroke-width="1"/>
<text x="91" y="161.00" text-anchor="end" font-size="14" fill="#536174">90%</text>
<line x1="105" y1="105.00" x2="1165" y2="105.00" stroke="#dce3ec" stroke-width="1"/>
<text x="91" y="110.00" text-anchor="end" font-size="14" fill="#536174">100%</text>
<line x1="105.00" y1="105" x2="105.00" y2="615" stroke="#eef1f5" stroke-width="1"/>
<text x="105.00" y="640" text-anchor="middle" font-size="14" fill="#536174">2</text>
<line x1="180.71" y1="105" x2="180.71" y2="615" stroke="#eef1f5" stroke-width="1"/>
<text x="180.71" y="640" text-anchor="middle" font-size="14" fill="#536174">4</text>
<line x1="256.43" y1="105" x2="256.43" y2="615" stroke="#eef1f5" stroke-width="1"/>
<text x="256.43" y="640" text-anchor="middle" font-size="14" fill="#536174">6</text>
<line x1="332.14" y1="105" x2="332.14" y2="615" stroke="#eef1f5" stroke-width="1"/>
<text x="332.14" y="640" text-anchor="middle" font-size="14" fill="#536174">8</text>
<line x1="407.86" y1="105" x2="407.86" y2="615" stroke="#eef1f5" stroke-width="1"/>
<text x="407.86" y="640" text-anchor="middle" font-size="14" fill="#536174">10</text>
<line x1="483.57" y1="105" x2="483.57" y2="615" stroke="#eef1f5" stroke-width="1"/>
<text x="483.57" y="640" text-anchor="middle" font-size="14" fill="#536174">12</text>
<line x1="559.29" y1="105" x2="559.29" y2="615" stroke="#eef1f5" stroke-width="1"/>
<text x="559.29" y="640" text-anchor="middle" font-size="14" fill="#536174">14</text>
<line x1="635.00" y1="105" x2="635.00" y2="615" stroke="#eef1f5" stroke-width="1"/>
<text x="635.00" y="640" text-anchor="middle" font-size="14" fill="#536174">16</text>
<line x1="710.71" y1="105" x2="710.71" y2="615" stroke="#eef1f5" stroke-width="1"/>
<text x="710.71" y="640" text-anchor="middle" font-size="14" fill="#536174">18</text>
<line x1="786.43" y1="105" x2="786.43" y2="615" stroke="#eef1f5" stroke-width="1"/>
<text x="786.43" y="640" text-anchor="middle" font-size="14" fill="#536174">20</text>
<line x1="862.14" y1="105" x2="862.14" y2="615" stroke="#eef1f5" stroke-width="1"/>
<text x="862.14" y="640" text-anchor="middle" font-size="14" fill="#536174">22</text>
<line x1="937.86" y1="105" x2="937.86" y2="615" stroke="#eef1f5" stroke-width="1"/>
<text x="937.86" y="640" text-anchor="middle" font-size="14" fill="#536174">24</text>
<line x1="1013.57" y1="105" x2="1013.57" y2="615" stroke="#eef1f5" stroke-width="1"/>
<text x="1013.57" y="640" text-anchor="middle" font-size="14" fill="#536174">26</text>
<line x1="1089.29" y1="105" x2="1089.29" y2="615" stroke="#eef1f5" stroke-width="1"/>
<text x="1089.29" y="640" text-anchor="middle" font-size="14" fill="#536174">28</text>
<line x1="1165.00" y1="105" x2="1165.00" y2="615" stroke="#eef1f5" stroke-width="1"/>
<text x="1165.00" y="640" text-anchor="middle" font-size="14" fill="#536174">30</text>
<line x1="105" y1="105" x2="105" y2="615" stroke="#667085" stroke-width="1.5"/>
<line x1="105" y1="615" x2="1165" y2="615" stroke="#667085" stroke-width="1.5"/>
<text x="600" y="692" text-anchor="middle" font-size="17" font-weight="600">Modulus</text>
<text x="28" y="360" text-anchor="middle" font-size="17" font-weight="600" transform="rotate(-90 28 360)">Detection rate</text>
<polyline points="105.00,517.02 142.86,615.00 180.71,372.90 218.57,458.24 256.43,517.02 294.29,139.00 332.14,214.52 370.00,615.00 407.86,438.64 445.71,105.00 483.57,372.90 521.43,105.00 559.29,127.24 597.14,458.24 635.00,141.01 672.86,105.00 710.71,517.02 748.57,105.00 786.43,341.55 824.29,139.00 862.14,105.00 900.00,105.00 937.86,214.52 975.71,283.30 1013.57,105.00 1051.43,241.00 1089.29,115.59 1127.14,105.00 1165.00,438.64" fill="none" stroke="#c2410c" stroke-width="3" stroke-linecap="round" stroke-linejoin="round"/>
<circle cx="105.00" cy="517.02" r="4.5" fill="#c2410c" stroke="#ffffff" stroke-width="1.5"/>
<circle cx="142.86" cy="615.00" r="4.5" fill="#c2410c" stroke="#ffffff" stroke-width="1.5"/>
<circle cx="180.71" cy="372.90" r="4.5" fill="#c2410c" stroke="#ffffff" stroke-width="1.5"/>
<circle cx="218.57" cy="458.24" r="4.5" fill="#c2410c" stroke="#ffffff" stroke-width="1.5"/>
<circle cx="256.43" cy="517.02" r="4.5" fill="#c2410c" stroke="#ffffff" stroke-width="1.5"/>
<circle cx="294.29" cy="139.00" r="4.5" fill="#c2410c" stroke="#ffffff" stroke-width="1.5"/>
<circle cx="332.14" cy="214.52" r="4.5" fill="#c2410c" stroke="#ffffff" stroke-width="1.5"/>
<circle cx="370.00" cy="615.00" r="4.5" fill="#c2410c" stroke="#ffffff" stroke-width="1.5"/>
<circle cx="407.86" cy="438.64" r="4.5" fill="#c2410c" stroke="#ffffff" stroke-width="1.5"/>
<circle cx="445.71" cy="105.00" r="4.5" fill="#c2410c" stroke="#ffffff" stroke-width="1.5"/>
<circle cx="483.57" cy="372.90" r="4.5" fill="#c2410c" stroke="#ffffff" stroke-width="1.5"/>
<circle cx="521.43" cy="105.00" r="4.5" fill="#c2410c" stroke="#ffffff" stroke-width="1.5"/>
<circle cx="559.29" cy="127.24" r="4.5" fill="#c2410c" stroke="#ffffff" stroke-width="1.5"/>
<circle cx="597.14" cy="458.24" r="4.5" fill="#c2410c" stroke="#ffffff" stroke-width="1.5"/>
<circle cx="635.00" cy="141.01" r="4.5" fill="#c2410c" stroke="#ffffff" stroke-width="1.5"/>
<circle cx="672.86" cy="105.00" r="4.5" fill="#c2410c" stroke="#ffffff" stroke-width="1.5"/>
<circle cx="710.71" cy="517.02" r="4.5" fill="#c2410c" stroke="#ffffff" stroke-width="1.5"/>
<circle cx="748.57" cy="105.00" r="4.5" fill="#c2410c" stroke="#ffffff" stroke-width="1.5"/>
<circle cx="786.43" cy="341.55" r="4.5" fill="#c2410c" stroke="#ffffff" stroke-width="1.5"/>
<circle cx="824.29" cy="139.00" r="4.5" fill="#c2410c" stroke="#ffffff" stroke-width="1.5"/>
<circle cx="862.14" cy="105.00" r="4.5" fill="#c2410c" stroke="#ffffff" stroke-width="1.5"/>
<circle cx="900.00" cy="105.00" r="4.5" fill="#c2410c" stroke="#ffffff" stroke-width="1.5"/>
<circle cx="937.86" cy="214.52" r="4.5" fill="#c2410c" stroke="#ffffff" stroke-width="1.5"/>
<circle cx="975.71" cy="283.30" r="4.5" fill="#c2410c" stroke="#ffffff" stroke-width="1.5"/>
<circle cx="1013.57" cy="105.00" r="4.5" fill="#c2410c" stroke="#ffffff" stroke-width="1.5"/>
<circle cx="1051.43" cy="241.00" r="4.5" fill="#c2410c" stroke="#ffffff" stroke-width="1.5"/>
<circle cx="1089.29" cy="115.59" r="4.5" fill="#c2410c" stroke="#ffffff" stroke-width="1.5"/>
<circle cx="1127.14" cy="105.00" r="4.5" fill="#c2410c" stroke="#ffffff" stroke-width="1.5"/>
<circle cx="1165.00" cy="438.64" r="4.5" fill="#c2410c" stroke="#ffffff" stroke-width="1.5"/>
</g></svg>
